<?xml version="1.0" encoding="utf-8"?>
<!-- Generator: Adobe Illustrator 15.0.0, SVG Export Plug-In . SVG Version: 6.00 Build 0)  -->
<!DOCTYPE svg PUBLIC "-//W3C//DTD SVG 1.1//EN" "http://www.w3.org/Graphics/SVG/1.1/DTD/svg11.dtd">
<svg version="1.1" id="Capa_1" xmlns="http://www.w3.org/2000/svg" xmlns:xlink="http://www.w3.org/1999/xlink" x="0px" y="0px"
	 width="350px" height="110px" viewBox="0 0 350 110" enable-background="new 0 0 350 110" xml:space="preserve">
<g>
	<g>
		<path fill="#0EAEE2" d="M105.779,24.071l-7.06,9.586l0.013,0.009l-5.383,7.309l0,0l-16.503,22.41l-4.343,16.758l15.85-8.631
			l22.095-29.902l0.02,0.012l7.06-9.589L105.779,24.071z M87.566,70.473l-9.055,4.922l-2.909-1.975l2.412-9.393l0.997-1.356
			l0.608,5.214l3.583-1.486l-0.02,3.9l5.105-0.802L87.566,70.473z M103.806,31.204l2.615-3.547l7.373,4.992l-2.612,3.549
			L103.806,31.204z"/>
		<polygon fill="#0EAEE2" points="89.496,72.725 89.174,72.898 73.321,81.532 69.962,83.357 70.895,79.766 75.237,63.002 
			75.31,62.71 75.491,62.467 93.348,38.225 93.348,31.204 42.813,31.204 42.813,30.333 91.602,30.333 91.602,29.934 42.813,29.934 
			42.813,29.011 91.602,29.011 91.602,28.613 42.813,28.613 42.813,27.651 91.602,27.651 91.602,27.251 42.813,27.251 42.813,26.16 
			91.602,26.16 91.602,25.761 42.813,25.761 42.813,24.799 91.432,24.799 91.432,24.401 42.813,24.401 42.813,23.43 92.991,23.43 
			92.991,20.245 39.496,20.245 39.496,31.204 39.453,31.204 39.453,90.512 93.348,90.512 93.348,67.511 89.709,72.438 		"/>
	</g>
</g>
<text transform="matrix(1 0 0 1 140 67.6436)" fill="#595959" font-family="'MicrosoftYaHei'" font-size="42">改革开放史</text>
</svg>
