<?xml version="1.0" encoding="utf-8"?>
<!-- Generator: Adobe Illustrator 15.0.0, SVG Export Plug-In . SVG Version: 6.00 Build 0)  -->
<!DOCTYPE svg PUBLIC "-//W3C//DTD SVG 1.1//EN" "http://www.w3.org/Graphics/SVG/1.1/DTD/svg11.dtd">
<svg version="1.1" id="图层_1" xmlns:sketch="http://www.bohemiancoding.com/sketch/ns"
	 xmlns="http://www.w3.org/2000/svg" xmlns:xlink="http://www.w3.org/1999/xlink" x="0px" y="0px" width="72px" height="72px"
	 viewBox="0 0 72 72" enable-background="new 0 0 72 72" xml:space="preserve">
<title>成组 copy 23</title>
<desc>Created with Sketch.</desc>
<g id="Page-2" sketch:type="MSPage">
	<g id="Artboard-1" transform="translate(-1271.000000, -1117.000000)" sketch:type="MSArtboardGroup">
		<path id="Shape-Copy" sketch:type="MSShapeGroup" fill="#FF5722" d="M1337.755,1123.419c-0.2-0.158-0.472-0.186-0.694-0.068
			l-62.708,32.066c-0.233,0.12-0.371,0.367-0.351,0.629c0.022,0.262,0.199,0.483,0.449,0.563l20.991,6.672
			c0.222,0.07,0.46,0.018,0.629-0.136l29.038-26.163l-23.186,27.444c-0.14,0.165-0.188,0.392-0.126,0.599
			c0.062,0.209,0.224,0.373,0.432,0.437l23.292,7.095c0.061,0.019,0.123,0.027,0.187,0.027c0.111,0,0.222-0.029,0.32-0.084
			c0.154-0.089,0.267-0.236,0.309-0.409l11.646-48.011C1338.041,1123.833,1337.953,1123.575,1337.755,1123.419L1337.755,1123.419z"
			/>
		<path id="Path-Copy" sketch:type="MSShapeGroup" fill="#FFA499" d="M1309.273,1171.289l-6.438-1.98
			c-0.195-0.063-0.409-0.025-0.573,0.097c-0.165,0.123-0.263,0.316-0.263,0.521v12.149c0,0.288,0.189,0.541,0.467,0.621
			c0.059,0.017,0.119,0.025,0.18,0.025c0.217,0,0.425-0.109,0.545-0.301l6.438-10.169c0.108-0.171,0.131-0.381,0.061-0.569
			C1309.62,1171.493,1309.466,1171.349,1309.273,1171.289L1309.273,1171.289z"/>
	</g>
</g>
</svg>
