<?xml version="1.0" encoding="utf-8"?>
<!-- Generator: Adobe Illustrator 15.0.0, SVG Export Plug-In . SVG Version: 6.00 Build 0)  -->
<!DOCTYPE svg PUBLIC "-//W3C//DTD SVG 1.1//EN" "http://www.w3.org/Graphics/SVG/1.1/DTD/svg11.dtd">
<svg version="1.1" id="图层_1" xmlns:sketch="http://www.bohemiancoding.com/sketch/ns"
	 xmlns="http://www.w3.org/2000/svg" xmlns:xlink="http://www.w3.org/1999/xlink" x="0px" y="0px" width="72px" height="72px"
	 viewBox="0 0 72 72" enable-background="new 0 0 72 72" xml:space="preserve">
<title>成组 copy 24</title>
<desc>Created with Sketch.</desc>
<g id="Page-2" sketch:type="MSPage">
	<g id="Artboard-1" transform="translate(-1191.000000, -1027.000000)" sketch:type="MSArtboardGroup">
		<path id="Shape-Copy-2" sketch:type="MSShapeGroup" fill="#FF5722" d="M1258.089,1054.208
			c-7.536-25.502-31.667-24.197-31.667-24.197c33.837,16.794,18.642,40.591,18.642,40.591l-19.627-20.296l7.498-8.298l-5.127-4.802
			l-4.051,3.699l-7.593-0.096l-15.486,15.898l9.374,8.597l5.822-5.698l20.023,19.694c-16.972,11.299-32.453-7.297-32.453-7.297
			l-6.112,5.399l4.632,5.5l-0.795,1.099c-2.166-0.203-3.052,0.799-3.052,0.799c-5.327,5.201,1.081,8.102,1.081,8.102
			c6.222,1.396,5.922-5.105,5.922-5.105l1.181-1.493c23.384,12.792,37.188,1.3,37.188,1.3l6.708,6.396l9.173-9.301l-6.018-6.603
			C1253.352,1078.097,1261.545,1065.916,1258.089,1054.208L1258.089,1054.208z"/>
	</g>
</g>
</svg>
