<?xml version="1.0" encoding="utf-8"?>
<!-- Generator: Adobe Illustrator 15.0.0, SVG Export Plug-In . SVG Version: 6.00 Build 0)  -->
<!DOCTYPE svg PUBLIC "-//W3C//DTD SVG 1.1//EN" "http://www.w3.org/Graphics/SVG/1.1/DTD/svg11.dtd">
<svg version="1.1" id="图层_1" xmlns:sketch="http://www.bohemiancoding.com/sketch/ns"
	 xmlns="http://www.w3.org/2000/svg" xmlns:xlink="http://www.w3.org/1999/xlink" x="0px" y="0px" width="72px" height="72px"
	 viewBox="0 0 72 72" enable-background="new 0 0 72 72" xml:space="preserve">
<title>成组 copy 26</title>
<desc>Created with Sketch.</desc>
<g id="Page-2" sketch:type="MSPage">
	<g id="Artboard-1" transform="translate(-1191.000000, -1207.000000)" sketch:type="MSArtboardGroup">
		<g id="Group-Copy-4" transform="translate(1195.000000, 1211.000000)" sketch:type="MSLayerGroup">
			<rect id="Rectangle-path" x="30.476" sketch:type="MSShapeGroup" fill="#00A8F7" width="3.047" height="54.857">
			</rect>
			<path id="Rectangle-path_1_" sketch:type="MSShapeGroup" fill="#00A8F7" d="M34.769,42.32l2.154,2.154L21.625,59.772
				l-2.155-2.155L34.769,42.32L34.769,42.32z"/>
			<path id="Rectangle-path_2_" sketch:type="MSShapeGroup" fill="#00A8F7" d="M44.584,57.637l-2.154,2.154L27.132,44.492
				l2.155-2.154L44.584,57.637L44.584,57.637z"/>
			<rect id="Rectangle-path_3_" x="1.524" y="4.571" sketch:type="MSShapeGroup" fill="#B4E9FF" width="60.953" height="42.667">
			</rect>
			<rect id="矩形-537" x="16" y="20" sketch:type="MSShapeGroup" fill="#00A8F7" width="32" height="4">
			</rect>
			<rect id="矩形-537-copy" x="16" y="28" sketch:type="MSShapeGroup" fill="#00A8F7" width="22" height="4">
			</rect>
			<rect id="Rectangle-path_4_" y="3.048" sketch:type="MSShapeGroup" fill="#00A8F7" width="64" height="6.095">
			</rect>
			<rect id="Rectangle-path_5_" y="45.715" sketch:type="MSShapeGroup" fill="#00A8F7" width="64" height="3.047">
			</rect>
			<ellipse id="Oval" sketch:type="MSShapeGroup" fill="#00A8F7" cx="43.429" cy="58.667" rx="2.286" ry="2.286">
			</ellipse>
			<ellipse id="Oval_1_" sketch:type="MSShapeGroup" fill="#00A8F7" cx="20.571" cy="58.667" rx="2.286" ry="2.286">
			</ellipse>
		</g>
	</g>
</g>
</svg>
