<?xml version="1.0" encoding="utf-8"?>
<!-- Generator: Adobe Illustrator 15.0.0, SVG Export Plug-In . SVG Version: 6.00 Build 0)  -->
<!DOCTYPE svg PUBLIC "-//W3C//DTD SVG 1.1//EN" "http://www.w3.org/Graphics/SVG/1.1/DTD/svg11.dtd">
<svg version="1.1" id="图层_1" xmlns:sketch="http://www.bohemiancoding.com/sketch/ns"
	 xmlns="http://www.w3.org/2000/svg" xmlns:xlink="http://www.w3.org/1999/xlink" x="0px" y="0px" width="72px" height="72px"
	 viewBox="0 0 72 72" enable-background="new 0 0 72 72" xml:space="preserve">
<title>成组 copy 23</title>
<desc>Created with Sketch.</desc>
<g id="Page-2" sketch:type="MSPage">
	<g id="Artboard-1" transform="translate(-1271.000000, -1027.000000)" sketch:type="MSArtboardGroup">
		<g id="Group-Copy-5" transform="translate(1278.000000, 1031.000000)" sketch:type="MSLayerGroup">
			<path id="Shape" sketch:type="MSShapeGroup" fill="#FF5722" d="M54.601,57.6c-11.04,0-25.6,6.4-25.6,6.4V28.8
				c0,0,14.399-6.4,28.8-6.4L54.601,57.6L54.601,57.6z"/>
			<path id="Shape_1_" sketch:type="MSShapeGroup" fill="#FFA499" d="M3.4,57.6c11.04,0,25.601,6.4,25.601,6.4V28.8
				c0,0-14.4-6.4-28.8-6.4L3.4,57.6L3.4,57.6z"/>
			<ellipse id="Oval" sketch:type="MSShapeGroup" fill="#FF5722" cx="29.001" cy="12.8" rx="12.8" ry="12.8">
			</ellipse>
			<path id="Shape_2_" sketch:type="MSShapeGroup" fill="#FFA499" d="M56.2,44.8h1.601c0.96,0,1.6-0.64,1.6-1.6v-6.4
				c0-0.96-0.64-1.6-1.6-1.6H56.2c-2.72,0-4.8,2.079-4.8,4.8l0,0C51.4,42.721,53.48,44.8,56.2,44.8L56.2,44.8z"/>
			<path id="Shape_3_" sketch:type="MSShapeGroup" fill="#FF5722" d="M1.801,35.2h-1.6c-0.96,0-1.6,0.64-1.6,1.6v6.4
				c0,0.96,0.64,1.6,1.6,1.6h1.6c2.72,0,4.8-2.079,4.8-4.8l0,0C6.601,37.279,4.521,35.2,1.801,35.2L1.801,35.2z"/>
		</g>
	</g>
</g>
</svg>
