<?xml version="1.0" encoding="utf-8"?>
<!-- Generator: Adobe Illustrator 15.0.0, SVG Export Plug-In . SVG Version: 6.00 Build 0)  -->
<!DOCTYPE svg PUBLIC "-//W3C//DTD SVG 1.1//EN" "http://www.w3.org/Graphics/SVG/1.1/DTD/svg11.dtd">
<svg version="1.1" id="图层_1" xmlns:sketch="http://www.bohemiancoding.com/sketch/ns"
	 xmlns="http://www.w3.org/2000/svg" xmlns:xlink="http://www.w3.org/1999/xlink" x="0px" y="0px" width="72px" height="72px"
	 viewBox="0 0 72 72" enable-background="new 0 0 72 72" xml:space="preserve">
<title>成组 copy 23</title>
<desc>Created with Sketch.</desc>
<g id="Page-2" sketch:type="MSPage">
	<g id="Artboard-1" transform="translate(-1191.000000, -937.000000)" sketch:type="MSArtboardGroup">
		<g id="Group-Copy-3" transform="translate(1198.000000, 943.000000)" sketch:type="MSLayerGroup">
			<path id="Shape" sketch:type="MSShapeGroup" fill="#00A8F7" d="M41,16v44H6.308C2.838,60,0,57.172,0,53.715V16H41L41,16z"/>
			<path id="Shape_1_" sketch:type="MSShapeGroup" fill="#B4E9FF" d="M12.303,0v53.684C12.303,57.158,9.467,60,6,60h45.697
				C55.164,60,58,57.158,58,53.684V0H12.303L12.303,0z"/>
			<rect id="Rectangle-path" x="22" y="26" sketch:type="MSShapeGroup" fill="#00A8F7" width="28" height="6">
			</rect>
			<rect id="Rectangle-path_1_" x="22" y="12" sketch:type="MSShapeGroup" fill="#00A8F7" width="10" height="10">
			</rect>
			<rect id="Rectangle-path-Copy" x="22" y="36" sketch:type="MSShapeGroup" fill="#00A8F7" width="13" height="2">
			</rect>
			<rect id="Rectangle-path-Copy-2" x="37" y="36" sketch:type="MSShapeGroup" fill="#00A8F7" width="13" height="2">
			</rect>
			<rect id="Rectangle-path-Copy-4" x="22" y="40" sketch:type="MSShapeGroup" fill="#00A8F7" width="13" height="2">
			</rect>
			<rect id="Rectangle-path-Copy-3" x="37" y="40" sketch:type="MSShapeGroup" fill="#00A8F7" width="13" height="2">
			</rect>
		</g>
	</g>
</g>
</svg>
