<?xml version="1.0" encoding="utf-8"?>
<!-- Generator: Adobe Illustrator 15.0.0, SVG Export Plug-In . SVG Version: 6.00 Build 0)  -->
<!DOCTYPE svg PUBLIC "-//W3C//DTD SVG 1.1//EN" "http://www.w3.org/Graphics/SVG/1.1/DTD/svg11.dtd">
<svg version="1.1" id="图层_1" xmlns:sketch="http://www.bohemiancoding.com/sketch/ns"
	 xmlns="http://www.w3.org/2000/svg" xmlns:xlink="http://www.w3.org/1999/xlink" x="0px" y="0px" width="72px" height="72px"
	 viewBox="0 0 72 72" enable-background="new 0 0 72 72" xml:space="preserve">
<title>成组 copy 23</title>
<desc>Created with Sketch.</desc>
<g id="Page-2" sketch:type="MSPage">
	<g id="Artboard-1" transform="translate(-1271.000000, -937.000000)" sketch:type="MSArtboardGroup">
		<path id="Shape-Copy-8" sketch:type="MSShapeGroup" fill="#00A8F7" d="M1271.263,973.076c0,0,16.076,23.646,36.257,23.646
			s35.743-23.851,35.743-23.851s-13.84-23.401-36.728-23.401S1271.263,973.076,1271.263,973.076z"/>
		<path id="Path-Copy-5" sketch:type="MSShapeGroup" fill="#FEF2E9" d="M1307.526,956.47c-9.535,0-17.264,7.729-17.264,17.263
			c0,9.534,7.729,17.264,17.264,17.264c9.533,0,17.263-7.729,17.263-17.264C1324.789,964.199,1317.06,956.47,1307.526,956.47
			L1307.526,956.47z"/>
		<path id="Path-Copy-6" sketch:type="MSShapeGroup" fill="#B4E9FF" d="M1297.263,973.158c0,5.351,4.338,9.688,9.688,9.688
			c5.352,0,9.688-4.337,9.688-9.688c0-5.351-4.337-9.688-9.688-9.688C1301.601,963.47,1297.263,967.807,1297.263,973.158
			L1297.263,973.158z"/>
	</g>
</g>
</svg>
