<?xml version="1.0" encoding="utf-8"?>
<!-- Generator: Adobe Illustrator 15.0.0, SVG Export Plug-In . SVG Version: 6.00 Build 0)  -->
<!DOCTYPE svg PUBLIC "-//W3C//DTD SVG 1.1//EN" "http://www.w3.org/Graphics/SVG/1.1/DTD/svg11.dtd">
<svg version="1.1" id="图层_1" xmlns:sketch="http://www.bohemiancoding.com/sketch/ns"
	 xmlns="http://www.w3.org/2000/svg" xmlns:xlink="http://www.w3.org/1999/xlink" x="0px" y="0px" width="72px" height="72px"
	 viewBox="0 0 72 72" enable-background="new 0 0 72 72" xml:space="preserve">
<title>成组 copy 23</title>
<desc>Created with Sketch.</desc>
<g id="Page-2" sketch:type="MSPage">
	<g id="Artboard-1" transform="translate(-452.000000, -1180.000000)" sketch:type="MSArtboardGroup">
		<g id="成组-copy" transform="translate(456.000000, 1185.000000)" sketch:type="MSLayerGroup">
			<path id="Shape" sketch:type="MSShapeGroup" fill="#00A8F7" d="M17.694,31.246h36.56l9.538,9.604V7.241
				c0-3.521-2.861-6.401-6.358-6.401H17.694c-3.497,0-6.358,2.881-6.358,6.401v17.604C11.336,28.366,14.197,31.246,17.694,31.246
				L17.694,31.246z"/>
			<path id="Shape_1_" sketch:type="MSShapeGroup" fill="#B4E9FF" d="M46.307,51.774H9.747l-9.538,9.603v-36.81
				c0-3.521,2.861-6.401,6.358-6.401h39.739c3.497,0,6.358,2.881,6.358,6.401v20.806C52.665,48.894,49.804,51.774,46.307,51.774
				L46.307,51.774z"/>
		</g>
	</g>
</g>
</svg>
