<?xml version="1.0" encoding="utf-8"?>
<!-- Generator: Adobe Illustrator 15.0.0, SVG Export Plug-In . SVG Version: 6.00 Build 0)  -->
<!DOCTYPE svg PUBLIC "-//W3C//DTD SVG 1.1//EN" "http://www.w3.org/Graphics/SVG/1.1/DTD/svg11.dtd">
<svg version="1.1" id="图层_1" xmlns:sketch="http://www.bohemiancoding.com/sketch/ns"
	 xmlns="http://www.w3.org/2000/svg" xmlns:xlink="http://www.w3.org/1999/xlink" x="0px" y="0px" width="72px" height="72px"
	 viewBox="0 0 72 72" enable-background="new 0 0 72 72" xml:space="preserve">
<title>成组 copy 23</title>
<desc>Created with Sketch.</desc>
<g id="Page-2" sketch:type="MSPage">
	<g id="Artboard-1" transform="translate(-650.000000, -1016.000000)" sketch:type="MSArtboardGroup">
		<g id="矩形-488-_x2B_-Shape" transform="translate(655.000000, 1017.000000)" sketch:type="MSLayerGroup">
			<path id="矩形-488" sketch:type="MSShapeGroup" fill="#FFA499" d="M7.941,6h42c5.523,0,10,4.477,10,10v42
				c0,5.523-4.477,10-10,10h-42c-5.523,0-10-4.477-10-10V16C-2.059,10.477,2.418,6,7.941,6z"/>
			<path id="Shape" sketch:type="MSShapeGroup" fill="#FF5722" d="M12.942,47.867c-0.939-0.93-2.137-0.701-2.66,0.506
				c0,0-3.996,9.217-2.894,10.307c1.079,1.068,10.411-2.874,10.411-2.874c1.222-0.517,1.453-1.698,0.513-2.628L12.942,47.867
				L12.942,47.867z M17.168,41.35c-0.939-0.93-2.622-0.762-3.371-0.02c-0.75,0.741-0.555,2.613,0.385,3.542l6.698,6.624
				c0.939,0.93,2.631,0.826,3.313,0.152c0.682-0.674,1.042-2.321,0.103-3.25L17.168,41.35L17.168,41.35z M26.128,47.268
				c0.939,0.93,2.505,0.959,3.479,0.065c0,0,1.279-1.174,2.898-2.774C48.928,28.317,66.861,5.498,63.691,2.363
				S37.449,16.965,21.027,33.207c-1.618,1.601-2.805,2.866-2.805,2.866c-0.903,0.963-0.874,2.512,0.065,3.441L26.128,47.268
				L26.128,47.268z"/>
		</g>
	</g>
</g>
</svg>
