<?xml version="1.0" encoding="utf-8"?>
<!-- Generator: Adobe Illustrator 15.0.0, SVG Export Plug-In . SVG Version: 6.00 Build 0)  -->
<!DOCTYPE svg PUBLIC "-//W3C//DTD SVG 1.1//EN" "http://www.w3.org/Graphics/SVG/1.1/DTD/svg11.dtd">
<svg version="1.1" id="图层_1" xmlns:sketch="http://www.bohemiancoding.com/sketch/ns"
	 xmlns="http://www.w3.org/2000/svg" xmlns:xlink="http://www.w3.org/1999/xlink" x="0px" y="0px" width="72px" height="72px"
	 viewBox="0 0 72 72" enable-background="new 0 0 72 72" xml:space="preserve">
<title>成组 copy 29</title>
<desc>Created with Sketch.</desc>
<g id="Page-2" sketch:type="MSPage">
	<g id="Artboard-1" transform="translate(-1271.000000, -1207.000000)" sketch:type="MSArtboardGroup">
		<path id="Path-342-Copy-2" sketch:type="MSShapeGroup" fill="#FF5722" d="M1302.14,1213c0,0,1.8,13.109-16.74,19.482
			c3.42,0,13.5-0.729,15.3,2.185c-6.737,0-22.32,9.65-23.22,12.928c0,0,14.58-4.82,21.24,0c-1.8,0-21.78,5.462-27.72,13.474
			c1.98-0.546,18.72-9.65,33.12,3.642c18.36,15.295,29.88,8.558,38.88-4.733c-4.68,2.367-22.68,13.109-40.14-4.734
			c1.8,0,10.98,1.092,19.621-8.74c-4.86,0.729-9.541,2.731-16.021-3.823c1.44,0,9.54-3.824,13.32-8.375
			c-2.341,0-12.24,1.092-15.66-7.465C1312.04,1220.465,1302.14,1213,1302.14,1213z"/>
	</g>
</g>
</svg>
