<?xml version="1.0" encoding="utf-8"?>
<!-- Generator: Adobe Illustrator 15.0.0, SVG Export Plug-In . SVG Version: 6.00 Build 0)  -->
<!DOCTYPE svg PUBLIC "-//W3C//DTD SVG 1.1//EN" "http://www.w3.org/Graphics/SVG/1.1/DTD/svg11.dtd">
<svg version="1.1" id="图层_1" xmlns:sketch="http://www.bohemiancoding.com/sketch/ns"
	 xmlns="http://www.w3.org/2000/svg" xmlns:xlink="http://www.w3.org/1999/xlink" x="0px" y="0px" width="72px" height="72px"
	 viewBox="0 0 72 72" enable-background="new 0 0 72 72" xml:space="preserve">
<title>成组 copy 23</title>
<desc>Created with Sketch.</desc>
<g id="Page-2" sketch:type="MSPage">
	<g id="Artboard-1" transform="translate(-1191.000000, -1117.000000)" sketch:type="MSArtboardGroup">
		<g id="Group" transform="translate(1196.000000, 1121.000000)" sketch:type="MSLayerGroup">
			<path id="Shape-Copy-7" sketch:type="MSShapeGroup" fill="#FF5722" d="M14.673,63.928H0.471V11.545h14.203V63.928L14.673,63.928z
				 M19.102,0.072h14.092v63.85H19.102V0.072L19.102,0.072z"/>
			<path id="Path-Copy-2" sketch:type="MSShapeGroup" fill="#FFA499" d="M64.016,58.877l-13.504,4.451L34.471,13.523l13.504-4.451
				L64.016,58.877z M39.098,19.883l8.861-2.921l-1.479-4.59l-8.861,2.921L39.098,19.883z"/>
			<path id="Path-Copy-3" sketch:type="MSShapeGroup" fill="#FFA499" d="M12.791,14.072h-9.32v4.827h9.32V14.072L12.791,14.072z"/>
			<path id="Path-Copy-4" sketch:type="MSShapeGroup" fill="#FFFFFF" d="M31.088,2.072h-9.617V7.05h9.617V2.072L31.088,2.072z"/>
		</g>
	</g>
</g>
</svg>
